<svg xmlns="http://www.w3.org/2000/svg" viewBox="0 0 64 64">
  <defs>
    <linearGradient id="cakeGradient" x1="0%" y1="0%" x2="0%" y2="100%">
      <stop offset="0%" style="stop-color:#FFB8D1;stop-opacity:1" />
      <stop offset="100%" style="stop-color:#E685B5;stop-opacity:1" />
    </linearGradient>
  </defs>
  
  <!-- Background circle -->
  <circle cx="32" cy="32" r="32" fill="#FFF5F8"/>
  
  <!-- Cake bottom layer -->
  <rect x="12" y="40" width="40" height="16" rx="2" fill="url(#cakeGradient)"/>
  <rect x="12" y="40" width="40" height="3" fill="#FFD1E3"/>
  
  <!-- Cake middle layer -->
  <rect x="16" y="28" width="32" height="14" rx="2" fill="url(#cakeGradient)"/>
  <rect x="16" y="28" width="32" height="3" fill="#FFD1E3"/>
  
  <!-- Cake top layer -->
  <rect x="20" y="18" width="24" height="12" rx="2" fill="url(#cakeGradient)"/>
  <rect x="20" y="18" width="24" height="3" fill="#FFD1E3"/>
  
  <!-- Candle -->
  <rect x="30" y="10" width="4" height="8" rx="1" fill="#FFD700"/>
  
  <!-- Flame -->
  <ellipse cx="32" cy="8" rx="3" ry="4" fill="#FF6B6B"/>
  <ellipse cx="32" cy="7.5" rx="2" ry="2.5" fill="#FFD93D"/>
  
  <!-- Decorative elements -->
  <circle cx="22" cy="35" r="1.5" fill="#FFFFFF" opacity="0.9"/>
  <circle cx="32" cy="35" r="1.5" fill="#FFFFFF" opacity="0.9"/>
  <circle cx="42" cy="35" r="1.5" fill="#FFFFFF" opacity="0.9"/>
  
  <circle cx="26" cy="47" r="1.5" fill="#FFFFFF" opacity="0.8"/>
  <circle cx="38" cy="47" r="1.5" fill="#FFFFFF" opacity="0.8"/>
</svg>
