<svg xmlns="http://www.w3.org/2000/svg" viewBox="0 0 100 100">
  <!-- Cake base -->
  <rect x="20" y="60" width="60" height="25" rx="2" fill="#E685B5"/>
  
  <!-- Cake middle layer -->
  <rect x="25" y="45" width="50" height="18" rx="2" fill="#F5A5C8"/>
  
  <!-- Cake top layer -->
  <rect x="30" y="30" width="40" height="18" rx="2" fill="#FFB8D1"/>
  
  <!-- Frosting drips -->
  <ellipse cx="35" cy="48" rx="3" ry="4" fill="#FFFFFF" opacity="0.8"/>
  <ellipse cx="50" cy="48" rx="3" ry="4" fill="#FFFFFF" opacity="0.8"/>
  <ellipse cx="65" cy="48" rx="3" ry="4" fill="#FFFFFF" opacity="0.8"/>
  
  <ellipse cx="40" cy="33" rx="3" ry="4" fill="#FFFFFF" opacity="0.8"/>
  <ellipse cx="60" cy="33" rx="3" ry="4" fill="#FFFFFF" opacity="0.8"/>
  
  <!-- Candle -->
  <rect x="48" y="15" width="4" height="15" fill="#FFD700"/>
  
  <!-- Flame -->
  <ellipse cx="50" cy="13" rx="3" ry="5" fill="#FF6B6B"/>
  <ellipse cx="50" cy="12" rx="2" ry="3" fill="#FFD93D"/>
  
  <!-- Decorative dots -->
  <circle cx="35" cy="55" r="2" fill="#FFFFFF" opacity="0.9"/>
  <circle cx="50" cy="55" r="2" fill="#FFFFFF" opacity="0.9"/>
  <circle cx="65" cy="55" r="2" fill="#FFFFFF" opacity="0.9"/>
  
  <circle cx="40" cy="70" r="2" fill="#FFFFFF" opacity="0.7"/>
  <circle cx="60" cy="70" r="2" fill="#FFFFFF" opacity="0.7"/>
</svg>
